# xmcd
#
# Track frame offsets:
#	150
#	21910
#	39455
#	52923
#	70854
#	85433
#	97710
#	113683
#	127744
#	145144
#	159464
#	176862
#	191197
#	206265
#	219102
#	238319
#	253969
#	271059
#	284077
#	300237
#	312336
#	329071
#	343101
#
# Disc length: 4741 seconds
#
# Revision: 1
# Processed by: cddbd v1.5.1PL0 Copyright (c) Steve Scherf et al.
# Submitted via: EasyCDDAExtractor 7.0.5.4
#
DISCID=51128317
DTITLE=Chris Isaak - Grand Collection
DYEAR=1900
DGENRE=Musical
TTITLE0=Wicked Game
TTITLE1=You Owe me Some Kind of Love
TTITLE2=San Francisco Days
TTITLE3=Blue Spanish Sky
TTITLE4=Blue Hotel
TTITLE5=Forever Blue
TTITLE6=Please
TTITLE7=Pretty Girls Don't Cry
TTITLE8=Changed Your Mind
TTITLE9=I Want Your Love
TTITLE10=Beautiful Homes
TTITLE11=Lonely With a Broken Heart
TTITLE12=Heart Full of Soul
TTITLE13=Go Walking Down Here
TTITLE14=Lie to Me
TTITLE15=Heart Shaped World
TTITLE16=Dancin'
TTITLE17=Baby Did a Bad Bad Thing
TTITLE18=Two Hearts
TTITLE19=Voodoo
TTITLE20=Waiting
TTITLE21=The End of Everything
TTITLE22=Somebody's Crying
EXTD=
EXTT0=
EXTT1=
EXTT2=
EXTT3=
EXTT4=
EXTT5=
EXTT6=
EXTT7=
EXTT8=
EXTT9=
EXTT10=
EXTT11=
EXTT12=
EXTT13=
EXTT14=
EXTT15=
EXTT16=
EXTT17=
EXTT18=
EXTT19=
EXTT20=
EXTT21=
EXTT22=
PLAYORDER=
